<svg xmlns="http://www.w3.org/2000/svg" version="1.1" xmlns:xlink="http://www.w3.org/1999/xlink" xmlns:svgjs="http://svgjs.dev/svgjs" width="1000" height="272" viewBox="0 0 1000 272"><g transform="matrix(1,0,0,1,-0.6060606060606233,-0.05211254617026384)"><svg viewBox="0 0 396 108" data-background-color="#1ebbd7" preserveAspectRatio="xMidYMid meet" height="272" width="1000" xmlns="http://www.w3.org/2000/svg" xmlns:xlink="http://www.w3.org/1999/xlink"><g id="tight-bounds" transform="matrix(1,0,0,1,0.2400000000000091,0.020691746273485023)"><svg viewBox="0 0 395.52 107.9586162919864" height="107.9586162919864" width="395.52"><g><svg viewBox="0 0 397.4975999999999 108.49840937344632" height="107.9586162919864" width="395.52"><g><rect width="397.4975999999999" height="1.9652551592108072" x="0" y="60.98386396509768" fill="#77d4fc" opacity="1" stroke-width="0" stroke="transparent" fill-opacity="1" class="rect-o-0" data-fill-palette-color="secondary" rx="1%" id="o-0" data-palette-color="#77d4fc"></rect></g><g transform="matrix(1,0,0,1,0.9887999999999693,68.09376613794934)"><svg viewBox="0 0 395.52 40.40464323549698" height="40.40464323549698" width="395.52"><g id="textblocktransform"><svg viewBox="0 0 395.52 40.40464323549698" height="40.40464323549698" width="395.52" id="textblock"><g><svg viewBox="0 0 395.52 21.79233388248215" height="21.79233388248215" width="395.52"><g transform="matrix(1,0,0,1,0,0)"><svg width="395.52" viewBox="5.079999923706055 -36.25 666.8200073242188 36.7400016784668" height="21.79233388248215" data-palette-color="#010c80"><path d="M9.45 0L5.08 0 5.08-35.77 12.04-35.77 28.91-11.35 31.35-6.96 31.84-6.96 31.49-11.94 31.49-35.77 35.86-35.77 35.86 0 31.81 0 11.79-28.81 9.59-33.06 9.11-33.06 9.45-28.08 9.45 0ZM62.62-3.3L62.62-3.3Q65.43-3.3 67.76-4.42 70.09-5.54 71.77-7.51 73.46-9.47 74.39-12.11 75.31-14.75 75.31-17.8L75.31-17.8Q75.31-21 74.3-23.69 73.29-26.39 71.52-28.34 69.75-30.3 67.37-31.38 64.99-32.47 62.25-32.47L62.25-32.47Q59.4-32.47 57.07-31.31 54.73-30.15 53.07-28.17 51.41-26.2 50.5-23.55 49.58-20.9 49.58-17.9L49.58-17.9Q49.58-14.7 50.58-12.02 51.58-9.35 53.34-7.41 55.1-5.47 57.48-4.38 59.86-3.3 62.62-3.3ZM61.79 0.49L61.79 0.49Q58.37 0.49 55.25-0.73 52.12-1.95 49.74-4.22 47.36-6.49 45.96-9.73 44.55-12.96 44.55-16.99L44.55-16.99Q44.55-19.78 45.25-22.28 45.94-24.78 47.19-26.92 48.44-29.05 50.16-30.79 51.88-32.52 53.95-33.73 56.03-34.94 58.36-35.6 60.69-36.25 63.18-36.25L63.18-36.25Q65.4-36.25 67.54-35.72 69.68-35.18 71.59-34.16 73.51-33.13 75.11-31.62 76.71-30.1 77.88-28.17 79.05-26.25 79.7-23.89 80.34-21.53 80.34-18.8L80.34-18.8Q80.34-16.04 79.67-13.53 79-11.01 77.77-8.87 76.54-6.74 74.84-5 73.14-3.27 71.08-2.05 69.02-0.83 66.66-0.17 64.3 0.49 61.79 0.49ZM94.06 0L89.28 0 89.28-35.77 110.25-35.77 109.52-31.98 94.06-31.98 94.06-20.56 107.83-20.56 107.1-16.77 94.06-16.77 94.06 0ZM138.79 0L135.39-9.72 119.96-9.72 116.62 0 112.1 0 125.41-35.77 130.49-35.77 143.82 0 138.79 0ZM121.26-13.45L134.05-13.45 129.31-27.42 127.92-32.4 127.43-32.4 126.04-27.42 121.26-13.45ZM162.42-14.26L155.85-14.26 155.85 0 151.06 0 151.06-35.77 161.17-35.77Q163.81-35.77 166.01-35.03 168.2-34.3 169.77-33.02 171.33-31.74 172.19-30 173.06-28.27 173.06-26.27L173.06-26.27Q173.06-24.51 172.43-22.99 171.79-21.46 170.77-20.18 169.74-18.9 168.43-17.87 167.13-16.85 165.81-16.09L165.81-16.09 176.33 0 170.6 0 162.42-14.26ZM155.85-31.98L155.85-18.04 163.78-18.04Q164.81-18.6 165.63-19.41 166.45-20.21 167.01-21.18 167.57-22.14 167.87-23.22 168.18-24.29 168.18-25.42L168.18-25.42Q168.18-26.81 167.69-28.02 167.2-29.22 166.21-30.1 165.22-30.98 163.74-31.48 162.25-31.98 160.24-31.98L160.24-31.98 155.85-31.98ZM199.23 0L194.44 0 194.44-35.77 215.41-35.77 214.68-31.98 199.23-31.98 199.23-20.56 213-20.56 212.27-16.77 199.23-16.77 199.23 0ZM222.91-35.77L227.69-35.77 227.69-13.55Q227.69-10.89 228.57-8.95 229.45-7.01 230.85-5.75 232.26-4.49 233.99-3.89 235.72-3.3 237.46-3.3L237.46-3.3Q239.22-3.3 240.8-3.92 242.39-4.54 243.57-5.77 244.76-7.01 245.47-8.85 246.17-10.69 246.17-13.16L246.17-13.16 246.17-35.77 250.57-35.77 250.57-13.21Q250.57-11.72 250.2-10.12 249.84-8.52 249.09-7.01 248.35-5.49 247.2-4.13 246.05-2.76 244.49-1.73 242.93-0.71 240.92-0.11 238.92 0.49 236.46 0.49L236.46 0.49Q233.45 0.49 230.96-0.45 228.47-1.39 226.68-3.19 224.88-4.98 223.9-7.6 222.91-10.23 222.91-13.57L222.91-13.57 222.91-35.77ZM279.81 0L260.97 0 260.97-35.77 265.75-35.77 265.75-3.78 280.55-3.78 279.81 0ZM306.67 0L287.82 0 287.82-35.77 292.6-35.77 292.6-3.78 307.4-3.78 306.67 0ZM341.79-19.73L341.79-19.73Q343.28-19.31 344.61-18.55 345.94-17.8 346.95-16.76 347.95-15.72 348.54-14.39 349.14-13.06 349.14-11.5L349.14-11.5Q349.14-10.25 348.74-8.91 348.34-7.57 347.53-6.29 346.73-5 345.53-3.87 344.33-2.73 342.75-1.87 341.16-1 339.19-0.5 337.23 0 334.88 0L334.88 0 325.7 0 325.7-35.77 335.76-35.77Q338.72-35.77 340.91-35.08 343.11-34.4 344.58-33.3 346.04-32.2 346.77-30.81 347.51-29.42 347.51-27.98L347.51-27.98Q347.51-26.76 347.02-25.57 346.53-24.39 345.74-23.33 344.94-22.27 343.92-21.35 342.89-20.43 341.79-19.73ZM330.49-16.77L330.49-3.78 335.42-3.78Q337.86-3.78 339.52-4.41 341.18-5.03 342.21-6.02 343.23-7.01 343.67-8.24 344.11-9.47 344.11-10.72L344.11-10.72Q344.11-12.28 343.49-13.42 342.87-14.55 341.72-15.3 340.57-16.04 338.96-16.41 337.35-16.77 335.37-16.77L335.37-16.77 330.49-16.77ZM330.49-20.56L338.89-20.56Q340.65-21.78 341.68-23.29 342.72-24.8 342.72-26.64L342.72-26.64Q342.72-29.1 340.72-30.54 338.72-31.98 334.93-31.98L334.93-31.98 330.49-31.98 330.49-20.56ZM373.72-3.3L373.72-3.3Q376.53-3.3 378.86-4.42 381.2-5.54 382.88-7.51 384.56-9.47 385.49-12.11 386.42-14.75 386.42-17.8L386.42-17.8Q386.42-21 385.41-23.69 384.39-26.39 382.62-28.34 380.85-30.3 378.47-31.38 376.09-32.47 373.36-32.47L373.36-32.47Q370.5-32.47 368.17-31.31 365.84-30.15 364.18-28.17 362.52-26.2 361.6-23.55 360.69-20.9 360.69-17.9L360.69-17.9Q360.69-14.7 361.69-12.02 362.69-9.35 364.45-7.41 366.21-5.47 368.59-4.38 370.97-3.3 373.72-3.3ZM372.89 0.49L372.89 0.49Q369.48 0.49 366.35-0.73 363.23-1.95 360.85-4.22 358.47-6.49 357.06-9.73 355.66-12.96 355.66-16.99L355.66-16.99Q355.66-19.78 356.35-22.28 357.05-24.78 358.3-26.92 359.54-29.05 361.26-30.79 362.98-32.52 365.06-33.73 367.13-34.94 369.46-35.6 371.8-36.25 374.29-36.25L374.29-36.25Q376.51-36.25 378.64-35.72 380.78-35.18 382.7-34.16 384.61-33.13 386.21-31.62 387.81-30.1 388.98-28.17 390.16-26.25 390.8-23.89 391.45-21.53 391.45-18.8L391.45-18.8Q391.45-16.04 390.78-13.53 390.11-11.01 388.87-8.87 387.64-6.74 385.94-5 384.25-3.27 382.18-2.05 380.12-0.83 377.77-0.17 375.41 0.49 372.89 0.49ZM400.38 0L400.38-35.77 412.47-35.77Q417.2-35.77 420.78-34.46 424.36-33.15 426.75-30.91 429.14-28.66 430.35-25.61 431.56-22.56 431.56-19.09L431.56-19.09Q431.56-16.85 431.05-14.56 430.53-12.28 429.47-10.16 428.41-8.03 426.8-6.18 425.19-4.32 422.98-2.95 420.77-1.59 417.95-0.79 415.13 0 411.69 0L411.69 0 400.38 0ZM405.17-31.98L405.17-3.78 412.57-3.78Q416.11-3.78 418.74-4.92 421.38-6.05 423.1-8 424.82-9.94 425.68-12.54 426.53-15.14 426.53-18.09L426.53-18.09Q426.53-21.31 425.54-23.89 424.55-26.46 422.66-28.26 420.77-30.05 418-31.02 415.23-31.98 411.69-31.98L411.69-31.98 405.17-31.98ZM464.44-35.77L451.97-15.67 451.97 0 447.18 0 447.18-15.63 435.34-35.77 440.81-35.77 447.67-22.88 449.84-18.09 450.33-18.09 452.65-22.83 459.66-35.77 464.44-35.77ZM492.22-3.3L492.22-3.3Q493.83-3.3 495.2-3.72 496.57-4.15 497.54-4.94 498.52-5.74 499.07-6.84 499.62-7.93 499.62-9.28L499.62-9.28Q499.62-10.86 498.87-11.96 498.13-13.06 496.92-13.89 495.71-14.72 494.15-15.37 492.59-16.02 490.98-16.69 489.36-17.36 487.8-18.14 486.24-18.92 485.03-20.04 483.82-21.17 483.08-22.69 482.33-24.22 482.33-26.39L482.33-26.39Q482.33-28.69 483.21-30.52 484.09-32.35 485.67-33.63 487.24-34.91 489.4-35.58 491.56-36.25 494.15-36.25L494.15-36.25Q495.74-36.25 498.13-35.95 500.52-35.64 503.21-34.84L503.21-34.84 502.4-30.59 501.91-30.35Q500.57-30.96 499.3-31.37 498.03-31.79 496.91-32.03 495.79-32.28 494.83-32.37 493.88-32.47 493.17-32.47L493.17-32.47Q491.73-32.47 490.57-32.12 489.41-31.76 488.6-31.09 487.78-30.42 487.33-29.46 486.87-28.49 486.87-27.27L486.87-27.27Q486.87-25.63 487.62-24.49 488.36-23.34 489.6-22.46 490.83-21.58 492.39-20.9 493.95-20.21 495.58-19.53 497.2-18.85 498.76-18.07 500.33-17.29 501.56-16.25 502.79-15.21 503.54-13.79 504.28-12.38 504.28-10.4L504.28-10.4Q504.28-8.23 503.34-6.26 502.4-4.3 500.7-2.8 499.01-1.29 496.63-0.4 494.25 0.49 491.37 0.49L491.37 0.49Q490.15 0.49 488.81 0.32 487.48 0.15 486.14-0.16 484.8-0.46 483.49-0.9 482.19-1.34 481.01-1.88L481.01-1.88 481.84-6.15 482.33-6.4Q484.82-4.96 487.37-4.13 489.93-3.3 492.22-3.3ZM525.49-31.98L525.49 0 520.71 0 520.71-31.98 508.84-31.98 509.58-35.77 537.85-35.77 537.12-31.98 525.49-31.98ZM544.22-35.77L549-35.77 549-13.55Q549-10.89 549.88-8.95 550.76-7.01 552.16-5.75 553.57-4.49 555.3-3.89 557.04-3.3 558.77-3.3L558.77-3.3Q560.53-3.3 562.11-3.92 563.7-4.54 564.88-5.77 566.07-7.01 566.78-8.85 567.48-10.69 567.48-13.16L567.48-13.16 567.48-35.77 571.88-35.77 571.88-13.21Q571.88-11.72 571.51-10.12 571.15-8.52 570.4-7.01 569.66-5.49 568.51-4.13 567.36-2.76 565.8-1.73 564.24-0.71 562.24-0.11 560.23 0.49 557.77 0.49L557.77 0.49Q554.76 0.49 552.27-0.45 549.78-1.39 547.99-3.19 546.2-4.98 545.21-7.6 544.22-10.23 544.22-13.57L544.22-13.57 544.22-35.77ZM582.28 0L582.28-35.77 594.36-35.77Q599.1-35.77 602.67-34.46 606.25-33.15 608.64-30.91 611.04-28.66 612.24-25.61 613.45-22.56 613.45-19.09L613.45-19.09Q613.45-16.85 612.94-14.56 612.43-12.28 611.37-10.16 610.3-8.03 608.69-6.18 607.08-4.32 604.87-2.95 602.66-1.59 599.84-0.79 597.02 0 593.58 0L593.58 0 582.28 0ZM587.06-31.98L587.06-3.78 594.46-3.78Q598-3.78 600.64-4.92 603.27-6.05 604.99-8 606.72-9.94 607.57-12.54 608.42-15.14 608.42-18.09L608.42-18.09Q608.42-21.31 607.44-23.89 606.45-26.46 604.55-28.26 602.66-30.05 599.89-31.02 597.12-31.98 593.58-31.98L593.58-31.98 587.06-31.98ZM627.17-35.77L627.17 0 622.39 0 622.39-35.77 627.17-35.77ZM654.17-3.3L654.17-3.3Q656.98-3.3 659.31-4.42 661.64-5.54 663.33-7.51 665.01-9.47 665.94-12.11 666.87-14.75 666.87-17.8L666.87-17.8Q666.87-21 665.85-23.69 664.84-26.39 663.07-28.34 661.3-30.3 658.92-31.38 656.54-32.47 653.8-32.47L653.8-32.47Q650.95-32.47 648.62-31.31 646.29-30.15 644.63-28.17 642.97-26.2 642.05-23.55 641.13-20.9 641.13-17.9L641.13-17.9Q641.13-14.7 642.13-12.02 643.14-9.35 644.89-7.41 646.65-5.47 649.03-4.38 651.41-3.3 654.17-3.3ZM653.34 0.49L653.34 0.49Q649.92 0.49 646.8-0.73 643.67-1.95 641.29-4.22 638.91-6.49 637.51-9.73 636.1-12.96 636.1-16.99L636.1-16.99Q636.1-19.78 636.8-22.28 637.5-24.78 638.74-26.92 639.99-29.05 641.71-30.79 643.43-32.52 645.5-33.73 647.58-34.94 649.91-35.6 652.24-36.25 654.73-36.25L654.73-36.25Q656.95-36.25 659.09-35.72 661.23-35.18 663.14-34.16 665.06-33.13 666.66-31.62 668.26-30.1 669.43-28.17 670.6-26.25 671.25-23.89 671.9-21.53 671.9-18.8L671.9-18.8Q671.9-16.04 671.22-13.53 670.55-11.01 669.32-8.87 668.09-6.74 666.39-5 664.69-3.27 662.63-2.05 660.57-0.83 658.21-0.17 655.86 0.49 653.34 0.49Z" opacity="1" transform="matrix(1,0,0,1,0,0)" fill="#010c80" class="wordmark-text-0" data-fill-palette-color="primary" id="text-0"></path></svg></g></svg></g><g transform="matrix(1,0,0,1,0,26.936980896123007)"><svg viewBox="0 0 395.52 13.467662339373968" height="13.467662339373968" width="395.52"><g transform="matrix(1,0,0,1,0,0)"><svg width="395.52" viewBox="1 -37.900001525878906 1393.52001953125 47.45000076293945" height="13.467662339373968" data-palette-color="#77d4fc"><path d="M6.05-17.25L6.05-20.1 6.1-25.5Q6.1-29.3 5.8-31.45L5.8-31.45Q5.65-32.7 4.48-33.4 3.3-34.1 2.43-34.1 1.55-34.1 1.28-34.43 1-34.75 1-34.95L1-34.95Q1-35.5 2.4-35.5L2.4-35.5 8.05-35.3 12.45-35.4Q13.55-35.4 13.55-34.7L13.55-34.7Q13.55-33.85 11.8-33.85L11.8-33.85Q10.8-33.85 10.35-31.8 9.9-29.75 9.9-27.6L9.9-27.6 9.9-25.75 9.8-21.15Q9.8-19.9 10.1-19.55 10.4-19.2 11.5-19.2L11.5-19.2 19.7-19.25Q19.7-19.25 29.15-19.15L29.15-19.15Q29.7-19.15 29.7-26.1L29.7-26.1 29.7-28.8Q29.7-32.55 28.2-33.4L28.2-33.4Q27.6-33.75 26.98-33.85 26.35-33.95 25.93-34.13 25.5-34.3 25.5-34.8 25.5-35.3 27.45-35.3L27.45-35.3 32.3-35.2 36.2-35.3Q37.35-35.3 37.35-34.65 37.35-34 36.65-34L36.65-34Q35.25-34 34.52-33.15 33.8-32.3 33.8-30.9L33.8-30.9 33.55-11.25 33.55-9.4 33.75-4.8Q33.75-1.55 37.95-1.1L37.95-1.1Q38.55-1.1 38.55-0.55L38.55-0.55Q38.55-0.2 38.05-0.1 37.55 0 36.1 0L36.1 0 32.25-0.25 27.55 0 26.7 0Q26 0 25.88-0.2 25.75-0.4 25.75-0.68 25.75-0.95 26.25-1.2 26.75-1.45 27.35-1.6 27.95-1.75 28.5-2.2L28.5-2.2Q29.55-2.95 29.55-6.9L29.55-6.9 29.7-15.75Q29.7-16.5 29.1-16.8 28.5-17.1 27.15-17.1 25.8-17.1 23.1-17L23.1-17 20.4-16.95 11.2-17.1Q10.45-17.1 10.2-16.8 9.95-16.5 9.95-15.25L9.95-15.25 9.75-9.1 9.75-6.95Q9.75-4.8 10.15-3.75 10.55-2.7 12.1-1.7L12.1-1.7Q12.5-1.45 13.55-1.45L13.55-1.45Q15.2-1.45 15.2-0.9L15.2-0.9Q15.2 0 13.6 0L13.6 0 9.45-0.2 4.05 0.05Q1.7 0.05 1.7-0.7L1.7-0.7Q1.7-1.4 3.25-1.6L3.25-1.6Q3.85-1.65 4.5-2.23 5.15-2.8 5.35-3.78 5.55-4.75 5.8-9.05 6.05-13.35 6.05-17.25L6.05-17.25ZM114.55 0.95Q110.15 0.95 107.08-1.75 104-4.45 104-9.58 104-14.7 106.83-18.15 109.65-21.6 114.15-21.6L114.15-21.6Q116.25-21.6 117.98-20.85 119.7-20.1 120.65-19.03 121.6-17.95 122.25-16.75L122.25-16.75Q123.35-14.7 123.35-13.65L123.35-13.65Q123.35-12.75 121.3-12.75L121.3-12.75 108.45-12.75Q108.05-12.75 107.98-12.68 107.9-12.6 107.9-12.2L107.9-12.2Q107.9-7.5 110.43-4.8 112.95-2.1 116.35-2.1L116.35-2.1Q118.45-2.1 120.63-3.23 122.8-4.35 122.9-4.35L122.9-4.35Q123.4-4.35 123.4-3.9L123.4-3.9Q123.4-3.3 122.3-2.27 121.2-1.25 120.2-0.6L120.2-0.6Q117.8 0.95 114.55 0.95L114.55 0.95ZM108.85-13.95L108.85-13.95 117.65-14.25Q118.35-14.25 118.53-14.38 118.7-14.5 118.7-14.85L118.7-14.85Q118.7-16.35 117.3-18.35 115.9-20.35 113.4-20.35 110.9-20.35 109.55-18.38 108.2-16.4 108.2-14.65L108.2-14.65Q108.2-13.95 108.85-13.95ZM196.16 0.75L196.16 0.75Q190.26 0.75 190.26-4.25L190.26-4.25Q190.26-7.85 193.26-9.2L193.26-9.2Q195.76-10.25 200.91-11.1L200.91-11.1Q201.06-11.15 201.31-11.18 201.56-11.2 201.83-11.25 202.11-11.3 202.26-11.35L202.26-11.35Q202.61-11.5 202.61-12.05L202.61-12.05 202.71-14.65Q202.71-17.5 201.06-18.78 199.41-20.05 197.86-20.05L197.86-20.05Q194.26-20.05 194.26-17.05L194.26-17.05 194.46-15.25Q194.46-14.25 193.56-14.25L193.56-14.25Q192.86-14.25 192.01-14.5L192.01-14.5Q190.46-15 190.46-16.2L190.46-16.2Q190.46-18.15 193.08-19.93 195.71-21.7 198.36-21.7 201.01-21.7 202.51-21.2 204.01-20.7 204.73-20.08 205.46-19.45 205.86-18.4L205.86-18.4Q206.36-17.15 206.36-14.48 206.36-11.8 206.23-9.73 206.11-7.65 206.11-5.95 206.11-4.25 206.51-3.18 206.91-2.1 207.46-1.8 208.01-1.5 208.56-1.45L208.56-1.45Q209.91-1.35 209.91-0.65L209.91-0.65Q209.91 0.4 206.76 0.4L206.76 0.4Q205.46 0.4 204.53-0.3 203.61-1 203.21-1.68 202.81-2.35 202.76-2.35 202.71-2.35 202.36-2.02 202.01-1.7 201.38-1.25 200.76-0.8 199.96-0.35L199.96-0.35Q198.11 0.75 196.16 0.75ZM202.26-10.4L202.26-10.4 201.76-10.3Q200.61-10.1 200.31-10.05 200.01-10 198.91-9.75 197.81-9.5 197.38-9.3 196.96-9.1 196.18-8.68 195.41-8.25 195.06-7.8L195.06-7.8Q194.16-6.4 194.16-4.85 194.16-3.3 195.16-2.27 196.16-1.25 197.73-1.25 199.31-1.25 200.23-1.65 201.16-2.05 201.61-2.55 202.06-3.05 202.31-3.9L202.31-3.9Q202.61-4.85 202.61-6.35L202.61-6.35 202.61-9.95Q202.61-10.4 202.26-10.4ZM277.96-5.9L277.96-9.6 278.16-30.85Q278.16-32 277.79-32.93 277.41-33.85 276.96-34.05 276.51-34.25 274.96-34.25L274.96-34.25Q274.41-34.25 274.41-34.6 274.41-34.95 274.49-35.1 274.56-35.25 274.81-35.38 275.06-35.5 275.41-35.6L275.41-35.6Q276.86-35.9 278.41-36.65L278.41-36.65Q280.86-37.8 281.61-37.8L281.61-37.8Q282.21-37.8 282.21-36.85L282.21-36.85Q282.21-36.65 282.11-35.7L282.11-35.7Q281.81-32.75 281.81-29.25L281.81-29.25 281.81-26.45 281.71-19.8 281.71-4.9Q281.71-3.85 281.89-3.18 282.06-2.5 283.04-1.88 284.01-1.25 285.76-1.25L285.76-1.25Q286.01-1.25 286.21-1 286.41-0.75 286.41-0.5L286.41-0.5Q286.41 0.2 284.86 0.2L284.86 0.2 279.81-0.15Q278.51-0.15 277.34 0.05 276.16 0.25 275.79 0.25 275.41 0.25 275.19 0.08 274.96-0.1 274.96-0.38 274.96-0.65 275.19-0.83 275.41-1 275.91-1.1L275.91-1.1Q277.41-1.5 277.71-2.33 278.01-3.15 278.01-4.6L278.01-4.6 277.96-5.9ZM352.52-18.55L352.52-18.55 351.57-18.5Q350.72-18.5 350.72-19.2L350.72-19.2Q350.72-19.7 351.17-20.05L351.17-20.05Q353.07-21.3 354.97-23.8L354.97-23.8Q355.77-24.95 356.24-25.48 356.72-26 357.22-26 357.72-26 357.72-24.85L357.72-24.85Q357.72-24.85 357.52-22L357.52-22Q357.52-21.3 357.79-21.15 358.07-21 359.57-21L359.57-21 361.32-21Q363.57-21 364.07-21.25L364.07-21.25Q364.97-21.7 365.17-21.7L365.17-21.7Q365.67-21.7 365.67-21.15L365.67-21.15Q365.67-20.75 365.02-19.58 364.37-18.4 364.07-18.4L364.07-18.4Q361.82-18.4 360.92-18.5 360.02-18.6 359.72-18.63 359.42-18.65 359.19-18.68 358.97-18.7 358.87-18.7L358.87-18.7 358.77-18.75Q357.82-18.75 357.54-18.45 357.27-18.15 357.27-17.1L357.27-17.1 357.07-7.8Q357.07-4.55 357.89-3.28 358.72-2 361.37-2L361.37-2Q362.42-2 363.69-2.48 364.97-2.95 365.07-2.95L365.07-2.95Q365.57-2.95 365.57-2.3 365.57-1.65 363.84-0.58 362.12 0.5 360.12 0.5L360.12 0.5Q353.37 0.5 353.37-5.35L353.37-5.35 353.37-6.1 353.57-17.75Q353.57-18.25 353.37-18.4 353.17-18.55 352.52-18.55ZM435.57-0.25L435.57-0.25 432.02 0Q430.77 0 430.72-0.15 430.67-0.3 430.67-0.5L430.67-0.5Q430.67-1 431.27-1.15L431.27-1.15Q432.72-1.55 433.15-2.43 433.57-3.3 433.57-5L433.57-5 433.77-22.05 433.77-24.5Q433.77-31.3 433.47-32.8 433.17-34.3 431.67-34.3L431.67-34.3 431.02-34.3 430.82-34.35Q429.97-34.35 429.97-34.8 429.97-35.25 430.5-35.52 431.02-35.8 432-36.05 432.97-36.3 434.77-37.1 436.57-37.9 437.02-37.9L437.02-37.9Q437.67-37.9 437.67-36.75L437.67-36.75Q437.67-36.5 437.5-35.55 437.32-34.6 437.3-31.88 437.27-29.15 437.2-26.03 437.12-22.9 437.07-21.8L437.07-21.8Q436.97-19.7 436.97-18.85 436.97-18 437.37-18L437.37-18Q437.47-18 438.4-18.93 439.32-19.85 440.95-20.78 442.57-21.7 444.42-21.7L444.42-21.7Q448.47-21.7 450.72-19.3 452.97-16.9 452.97-11.85L452.97-11.85 452.97-4.6Q452.97-3.25 453.47-2.5 453.97-1.75 454.62-1.7L454.62-1.7Q457.32-1.45 457.32-0.65 457.32 0.15 455.77 0.15L455.77 0.15 451.57-0.1 447.72 0.05Q446.57 0.05 446.57-0.45L446.57-0.45Q446.57-1.35 447.92-1.35L447.92-1.35Q448.42-1.35 448.85-1.9 449.27-2.45 449.27-3.6L449.27-3.6 449.32-4.9 449.37-11.9Q449.37-14.95 447.52-17.18 445.67-19.4 443.25-19.4 440.82-19.4 438.32-17.45L438.32-17.45Q437.42-16.75 437.17-15.18 436.92-13.6 436.92-8.2L436.92-8.2 436.92-7.05Q436.92-4.8 437.27-3.4L437.27-3.4Q437.82-1.45 440.02-1.3L440.02-1.3Q440.72-1.25 441.1-1.13 441.47-1 441.47-0.6L441.47-0.6Q441.47 0 440.92 0L440.92 0 439.62-0.05Q438.32-0.1 437-0.18 435.67-0.25 435.57-0.25ZM602.28 0.75L602.28 0.75Q596.38 0.75 596.38-4.25L596.38-4.25Q596.38-7.85 599.38-9.2L599.38-9.2Q601.88-10.25 607.03-11.1L607.03-11.1Q607.18-11.15 607.43-11.18 607.68-11.2 607.95-11.25 608.23-11.3 608.38-11.35L608.38-11.35Q608.73-11.5 608.73-12.05L608.73-12.05 608.83-14.65Q608.83-17.5 607.18-18.78 605.53-20.05 603.98-20.05L603.98-20.05Q600.38-20.05 600.38-17.05L600.38-17.05 600.58-15.25Q600.58-14.25 599.68-14.25L599.68-14.25Q598.98-14.25 598.13-14.5L598.13-14.5Q596.58-15 596.58-16.2L596.58-16.2Q596.58-18.15 599.2-19.93 601.83-21.7 604.48-21.7 607.13-21.7 608.63-21.2 610.13-20.7 610.85-20.08 611.58-19.45 611.98-18.4L611.98-18.4Q612.48-17.15 612.48-14.48 612.48-11.8 612.35-9.73 612.23-7.65 612.23-5.95 612.23-4.25 612.63-3.18 613.03-2.1 613.58-1.8 614.13-1.5 614.68-1.45L614.68-1.45Q616.03-1.35 616.03-0.65L616.03-0.65Q616.03 0.4 612.88 0.4L612.88 0.4Q611.58 0.4 610.65-0.3 609.73-1 609.33-1.68 608.93-2.35 608.88-2.35 608.83-2.35 608.48-2.02 608.13-1.7 607.5-1.25 606.88-0.8 606.08-0.35L606.08-0.35Q604.23 0.75 602.28 0.75ZM608.38-10.4L608.38-10.4 607.88-10.3Q606.73-10.1 606.43-10.05 606.13-10 605.03-9.75 603.93-9.5 603.5-9.3 603.08-9.1 602.3-8.68 601.53-8.25 601.18-7.8L601.18-7.8Q600.28-6.4 600.28-4.85 600.28-3.3 601.28-2.27 602.28-1.25 603.85-1.25 605.43-1.25 606.35-1.65 607.28-2.05 607.73-2.55 608.18-3.05 608.43-3.9L608.43-3.9Q608.73-4.85 608.73-6.35L608.73-6.35 608.73-9.95Q608.73-10.4 608.38-10.4ZM691.93 0L691.93 0 688.28-0.2Q686.98-0.2 684.83-0.1L684.83-0.1 682.68 0Q681.93 0 681.93-0.45 681.93-0.9 682.18-1 682.43-1.1 682.81-1.15 683.18-1.2 683.53-1.45L683.53-1.45Q684.48-2.05 684.58-5.08 684.68-8.1 684.68-9.05L684.68-9.05 684.68-16.25Q684.68-17.85 684.11-18.4 683.53-18.95 682.53-18.95L682.53-18.95 682.03-18.95Q681.08-18.95 681.08-19.5L681.08-19.5Q681.08-20 682.16-20.15 683.23-20.3 683.86-20.48 684.48-20.65 685.51-21.08 686.53-21.5 687.16-21.8 687.78-22.1 687.98-22.1L687.98-22.1 688.08-22.1Q688.53-22.1 688.53-21.5L688.53-21.5 688.43-19.35Q688.43-18.05 688.63-18.05 688.83-18.05 689.03-18.3L689.03-18.3Q689.78-19.35 691.03-20.1L691.03-20.1Q693.28-21.5 695.33-21.5 697.38-21.5 698.98-20.88 700.58-20.25 701.48-19.33 702.38-18.4 702.98-17.2L702.98-17.2Q703.98-15.2 703.98-13.1L703.98-13.1 703.98-12.6 704.03-9.95 704.03-4.85Q704.03-2.95 704.56-2.23 705.08-1.5 707.08-1.2L707.08-1.2Q708.08-1.05 708.08-0.45L708.08-0.45Q708.08 0.05 707.08 0.05L707.08 0.05 702.98-0.2 699.13 0Q698.13 0 698.13-0.65L698.13-0.65Q698.13-1.1 698.73-1.25L698.73-1.25 699.38-1.4Q700.48-1.75 700.48-4.75L700.48-4.75 700.48-11.5Q700.48-15.35 698.58-17.32 696.68-19.3 694.28-19.3 691.88-19.3 690.28-18.15 688.68-17 688.33-16 687.98-15 687.98-8.35L687.98-8.35 687.98-6.45Q687.98-3.95 688.51-2.75 689.03-1.55 690.83-1.4L690.83-1.4Q691.33-1.4 692.11-1.23 692.88-1.05 692.88-0.65L692.88-0.65Q692.88 0 691.93 0ZM790.79 0.15L790.79 0.15 790.64-1.7Q790.64-2.55 790.19-2.55L790.19-2.55Q790.04-2.55 789.46-2.05 788.89-1.55 788.14-0.93 787.39-0.3 785.96 0.2 784.54 0.7 782.89 0.7L782.89 0.7Q778.24 0.7 775.64-2.38 773.04-5.45 773.04-10.03 773.04-14.6 776.26-18.25 779.49-21.9 785.19-21.9L785.19-21.9Q786.49-21.9 788.61-21.18 790.74-20.45 790.94-20.45 791.14-20.45 791.14-22.25L791.14-22.25 791.24-28.7Q791.24-31.4 790.96-32.5 790.69-33.6 790.11-33.95 789.54-34.3 788.59-34.3L788.59-34.3 788.04-34.3Q787.29-34.3 787.14-34.35 786.99-34.4 786.99-34.7L786.99-34.7 786.99-34.75Q786.99-35.1 787.49-35.27 787.99-35.45 789.51-35.93 791.04-36.4 791.91-36.8 792.79-37.2 793.24-37.4L793.24-37.4Q794.19-37.9 794.59-37.9L794.59-37.9Q795.19-37.9 795.19-36.9L795.19-36.9Q795.19-36.75 794.86-32.65 794.54-28.55 794.54-26.05L794.54-26.05 794.44-7.8Q794.44-4.4 794.76-3.25 795.09-2.1 796.19-1.75L796.19-1.75Q796.34-1.7 797.04-1.58 797.74-1.45 798.04-1.28 798.34-1.1 798.34-0.7L798.34-0.7Q798.34-0.1 794.49 0.2L794.49 0.2Q793.69 0.25 792.64 0.48 791.59 0.7 791.34 0.7L791.34 0.7Q790.79 0.7 790.79 0.15ZM783.59-20.45Q780.34-20.45 778.49-18.07 776.64-15.7 776.64-12 776.64-8.3 778.96-5.1 781.29-1.9 784.94-1.9L784.94-1.9Q787.19-1.9 789.04-3.05 790.89-4.2 790.89-5.85L790.89-5.85 790.94-14.4Q790.94-17.45 789.54-18.25L789.54-18.25Q785.84-20.45 783.59-20.45L783.59-20.45ZM937.7-1.4L937.7-1.4 938.85-1.45Q939.9-1.45 940.6-3.2L940.6-3.2Q941.05-4.35 941.15-6.85 941.25-9.35 941.25-21.7L941.25-21.7 941.25-30.2Q941.25-31 940.75-32L940.75-32Q939.75-34.1 936.85-34.1L936.85-34.1Q936-34.1 936-34.7L936-34.7Q936-35.45 936.45-35.45L936.45-35.45 938.45-35.4 945.75-35.45 951.25-35.6Q955.8-35.6 958.85-33.43 961.9-31.25 961.9-27.25L961.9-27.25Q961.9-22.95 957.4-20.2L957.4-20.2Q956.9-19.85 956.9-19.8L956.9-19.8Q956.9-19.65 957.75-19.43 958.6-19.2 959.8-18.68 961-18.15 962.17-17.25 963.35-16.35 964.2-14.58 965.05-12.8 965.05-10.53 965.05-8.25 963.8-5.8 962.55-3.35 960.6-2 958.65-0.65 956.75-0.13 954.85 0.4 952.5 0.4 950.15 0.4 946.85 0.13 943.55-0.15 943.2-0.15L943.2-0.15 938.9 0.05 938.2 0.05Q937.15 0.05 937.15-0.68 937.15-1.4 937.7-1.4ZM945.1-10.2L945.1-6.8 945.05-4.6Q945.05-1.6 949.95-1.6L949.95-1.6 951.1-1.6Q953.8-1.6 955.77-1.93 957.75-2.25 959.27-4.3 960.8-6.35 960.8-9 960.8-11.65 959.9-13.43 959-15.2 957.85-16.1 956.7-17 955.1-17.5L955.1-17.5Q952.9-18.2 951-18.2L951-18.2 947.1-18.25 946.35-18.3Q945.9-18.3 945.7-18.18 945.5-18.05 945.3-17.2L945.3-17.2Q945.1-16.15 945.1-10.2L945.1-10.2ZM945.35-28.7L945.35-27.25Q945.35-20.95 945.7-20.25L945.7-20.25Q945.9-19.9 948.55-19.9L948.55-19.9 951.75-19.9Q954.9-19.9 956.47-21.55 958.05-23.2 958.05-25.9 958.05-28.6 955.42-31.23 952.8-33.85 947.95-33.85L947.95-33.85Q946.4-33.85 945.87-32.93 945.35-32 945.35-28.7L945.35-28.7ZM1041.5 0.95Q1037.1 0.95 1034.03-1.75 1030.95-4.45 1030.95-9.58 1030.95-14.7 1033.78-18.15 1036.6-21.6 1041.1-21.6L1041.1-21.6Q1043.2-21.6 1044.93-20.85 1046.65-20.1 1047.6-19.03 1048.55-17.95 1049.2-16.75L1049.2-16.75Q1050.3-14.7 1050.3-13.65L1050.3-13.65Q1050.3-12.75 1048.25-12.75L1048.25-12.75 1035.4-12.75Q1035-12.75 1034.93-12.68 1034.85-12.6 1034.85-12.2L1034.85-12.2Q1034.85-7.5 1037.38-4.8 1039.9-2.1 1043.3-2.1L1043.3-2.1Q1045.4-2.1 1047.58-3.23 1049.75-4.35 1049.85-4.35L1049.85-4.35Q1050.35-4.35 1050.35-3.9L1050.35-3.9Q1050.35-3.3 1049.25-2.27 1048.15-1.25 1047.15-0.6L1047.15-0.6Q1044.75 0.95 1041.5 0.95L1041.5 0.95ZM1035.8-13.95L1035.8-13.95 1044.6-14.25Q1045.3-14.25 1045.48-14.38 1045.65-14.5 1045.65-14.85L1045.65-14.85Q1045.65-16.35 1044.25-18.35 1042.85-20.35 1040.35-20.35 1037.85-20.35 1036.5-18.38 1035.15-16.4 1035.15-14.65L1035.15-14.65Q1035.15-13.95 1035.8-13.95ZM1123.1 0.75L1123.1 0.75Q1117.2 0.75 1117.2-4.25L1117.2-4.25Q1117.2-7.85 1120.2-9.2L1120.2-9.2Q1122.7-10.25 1127.85-11.1L1127.85-11.1Q1128-11.15 1128.25-11.18 1128.5-11.2 1128.78-11.25 1129.05-11.3 1129.2-11.35L1129.2-11.35Q1129.55-11.5 1129.55-12.05L1129.55-12.05 1129.65-14.65Q1129.65-17.5 1128-18.78 1126.35-20.05 1124.8-20.05L1124.8-20.05Q1121.2-20.05 1121.2-17.05L1121.2-17.05 1121.4-15.25Q1121.4-14.25 1120.5-14.25L1120.5-14.25Q1119.8-14.25 1118.95-14.5L1118.95-14.5Q1117.4-15 1117.4-16.2L1117.4-16.2Q1117.4-18.15 1120.03-19.93 1122.65-21.7 1125.3-21.7 1127.95-21.7 1129.45-21.2 1130.95-20.7 1131.68-20.08 1132.4-19.45 1132.8-18.4L1132.8-18.4Q1133.3-17.15 1133.3-14.48 1133.3-11.8 1133.18-9.73 1133.05-7.65 1133.05-5.95 1133.05-4.25 1133.45-3.18 1133.85-2.1 1134.4-1.8 1134.95-1.5 1135.5-1.45L1135.5-1.45Q1136.85-1.35 1136.85-0.65L1136.85-0.65Q1136.85 0.4 1133.7 0.4L1133.7 0.4Q1132.4 0.4 1131.48-0.3 1130.55-1 1130.15-1.68 1129.75-2.35 1129.7-2.35 1129.65-2.35 1129.3-2.02 1128.95-1.7 1128.33-1.25 1127.7-0.8 1126.9-0.35L1126.9-0.35Q1125.05 0.75 1123.1 0.75ZM1129.2-10.4L1129.2-10.4 1128.7-10.3Q1127.55-10.1 1127.25-10.05 1126.95-10 1125.85-9.75 1124.75-9.5 1124.33-9.3 1123.9-9.1 1123.13-8.68 1122.35-8.25 1122-7.8L1122-7.8Q1121.1-6.4 1121.1-4.85 1121.1-3.3 1122.1-2.27 1123.1-1.25 1124.68-1.25 1126.25-1.25 1127.18-1.65 1128.1-2.05 1128.55-2.55 1129-3.05 1129.25-3.9L1129.25-3.9Q1129.55-4.85 1129.55-6.35L1129.55-6.35 1129.55-9.95Q1129.55-10.4 1129.2-10.4ZM1204.36-7.8L1204.36-7.8 1204.41-16.8Q1204.41-17.8 1203.88-18.4 1203.36-19 1202.91-19L1202.91-19 1202.01-19Q1201.11-19 1201.11-19.7 1201.11-20.4 1202.08-20.6 1203.06-20.8 1204.46-20.8L1204.46-20.8 1207.31-21.05Q1208.16-21.05 1208.31-20.7 1208.46-20.35 1208.46-18.95 1208.46-17.55 1208.33-15.13 1208.21-12.7 1208.21-9.75L1208.21-9.75Q1208.21-5.35 1209.91-3.53 1211.61-1.7 1213.76-1.7L1213.76-1.7Q1216.96-1.7 1218.41-3.05 1219.86-4.4 1219.86-7.8L1219.86-7.8 1219.76-14.7Q1219.76-17.2 1219.36-18.07 1218.96-18.95 1217.66-19.07 1216.36-19.2 1216.36-19.75L1216.36-19.75Q1216.36-20.9 1220.76-20.9L1220.76-20.9 1222.56-21.15Q1223.31-21.15 1223.53-20.9 1223.76-20.65 1223.76-20.18 1223.76-19.7 1223.73-18.98 1223.71-18.25 1223.68-17.05 1223.66-15.85 1223.61-14.35L1223.61-14.35Q1223.51-11.35 1223.51-7.65 1223.51-3.95 1223.81-2.85 1224.11-1.75 1224.91-1.75L1224.91-1.75 1226.21-1.8Q1227.41-1.8 1227.41-1.2 1227.41-0.6 1227.06-0.45 1226.71-0.3 1225.71-0.3 1224.71-0.3 1222.68-0.03 1220.66 0.25 1220.51 0.25L1220.51 0.25Q1220.16 0.25 1219.93-1.03 1219.71-2.3 1219.63-2.3 1219.56-2.3 1218.66-1.5 1217.76-0.7 1216.08 0.1 1214.41 0.9 1212.41 0.9L1212.41 0.9Q1204.36 0.9 1204.36-7.8ZM1294.11-18.55L1294.11-18.55 1293.16-18.5Q1292.31-18.5 1292.31-19.2L1292.31-19.2Q1292.31-19.7 1292.76-20.05L1292.76-20.05Q1294.66-21.3 1296.56-23.8L1296.56-23.8Q1297.36-24.95 1297.84-25.48 1298.31-26 1298.81-26 1299.31-26 1299.31-24.85L1299.31-24.85Q1299.31-24.85 1299.11-22L1299.11-22Q1299.11-21.3 1299.39-21.15 1299.66-21 1301.16-21L1301.16-21 1302.91-21Q1305.16-21 1305.66-21.25L1305.66-21.25Q1306.56-21.7 1306.76-21.7L1306.76-21.7Q1307.26-21.7 1307.26-21.15L1307.26-21.15Q1307.26-20.75 1306.61-19.58 1305.96-18.4 1305.66-18.4L1305.66-18.4Q1303.41-18.4 1302.51-18.5 1301.61-18.6 1301.31-18.63 1301.01-18.65 1300.79-18.68 1300.56-18.7 1300.46-18.7L1300.46-18.7 1300.36-18.75Q1299.41-18.75 1299.14-18.45 1298.86-18.15 1298.86-17.1L1298.86-17.1 1298.66-7.8Q1298.66-4.55 1299.49-3.28 1300.31-2 1302.96-2L1302.96-2Q1304.01-2 1305.29-2.48 1306.56-2.95 1306.66-2.95L1306.66-2.95Q1307.16-2.95 1307.16-2.3 1307.16-1.65 1305.44-0.58 1303.71 0.5 1301.71 0.5L1301.71 0.5Q1294.96 0.5 1294.96-5.35L1294.96-5.35 1294.96-6.1 1295.16-17.75Q1295.16-18.25 1294.96-18.4 1294.76-18.55 1294.11-18.55ZM1380.92 9.5L1380.77 9.5 1378.62 9.55Q1377.67 9.55 1377.67 8.9L1377.67 8.9Q1377.67 8.75 1378.79 7.35 1379.92 5.95 1381.07 3.9 1382.22 1.85 1382.22 0.28 1382.22-1.3 1379.37-7.5 1376.52-13.7 1374.42-17.65L1374.42-17.65Q1373.87-18.65 1373.29-19.2 1372.72-19.75 1372.37-19.8L1372.37-19.8Q1371.57-19.9 1371.57-20.55 1371.57-21.2 1372.57-21.2L1372.57-21.2 1377.92-21.1 1380.77-21.2Q1381.12-21.2 1381.39-21.03 1381.67-20.85 1381.67-20.65L1381.67-20.65Q1381.67-19.75 1380.47-19.75L1380.47-19.75 1379.72-19.75Q1378.92-19.75 1378.92-18.5L1378.92-18.5Q1378.92-17 1381.57-11.3L1381.57-11.3Q1381.97-10.45 1382.77-8.6L1382.77-8.6Q1384.27-5.2 1384.57-5.2 1384.87-5.2 1386.89-10.95 1388.92-16.7 1388.92-17.8 1388.92-18.9 1388.44-19.35 1387.97-19.8 1387.37-19.8L1387.37-19.8Q1385.82-19.7 1385.82-20.65L1385.82-20.65Q1385.82-21.25 1386.77-21.25L1386.77-21.25 1390.37-21.2 1393.47-21.25Q1394.52-21.25 1394.52-20.6L1394.52-20.6Q1394.52-20.1 1393.64-19.88 1392.77-19.65 1392.47-19.25L1392.47-19.25Q1391.67-18.1 1389.77-12.95L1389.77-12.95 1385.32-1.1Q1384.77 0.35 1384.22 1.88 1383.67 3.4 1383.32 4.35 1382.97 5.3 1382.62 6.25 1382.27 7.2 1382.07 7.73 1381.87 8.25 1381.67 8.7L1381.67 8.7Q1381.27 9.5 1380.92 9.5L1380.92 9.5Z" opacity="1" transform="matrix(1,0,0,1,0,0)" fill="#77d4fc" class="slogan-text-1" data-fill-palette-color="secondary" id="text-1"></path></svg></g></svg></g></svg></g></svg></g><g transform="matrix(1,0,0,1,162.83006639047375,0)"><svg viewBox="0 0 71.83746721905243 55.83921695145683" height="55.83921695145683" width="71.83746721905243"><g><svg xmlns="http://www.w3.org/2000/svg" xmlns:xlink="http://www.w3.org/1999/xlink" version="1.1" x="8.000000000000004" y="0" viewBox="18.350997924804688 18.347999572753906 63.30200958251953 63.303993225097656" enable-background="new 0 0 100 100" xml:space="preserve" height="55.83921695145683" width="55.83746721905242" class="icon-icon-0" data-fill-palette-color="accent" id="icon-0"><g fill="#00ffef" data-fill-palette-color="accent"><path fill="#00ffef" d="M80.951 48.597c-4.329-3.261-9.009-4.911-13.907-4.911-0.107 0-0.213 0-0.32 0.002-0.104-0.002-0.212-0.002-0.318-0.002-0.431 0-0.857 0.029-1.283 0.054 0.399-0.354 0.792-0.717 1.168-1.103 3.598-3.496 5.814-8.047 6.587-13.531 0.078-0.548-0.105-1.098-0.496-1.487-0.391-0.39-0.941-0.573-1.488-0.497-5.482 0.773-10.035 2.99-13.529 6.589-0.384 0.373-0.744 0.764-1.097 1.161 0.032-0.53 0.054-1.062 0.046-1.597 0.073-5.016-1.579-9.801-4.91-14.227-0.331-0.44-0.851-0.7-1.401-0.7-0.552 0-1.072 0.26-1.404 0.7-3.33 4.425-4.981 9.211-4.909 14.227-0.008 0.535 0.014 1.066 0.045 1.597-0.352-0.396-0.713-0.788-1.097-1.161-3.493-3.599-8.045-5.816-13.529-6.589-0.549-0.076-1.098 0.107-1.487 0.497-0.39 0.391-0.574 0.941-0.498 1.487 0.774 5.484 2.99 10.036 6.588 13.531 0.375 0.386 0.769 0.748 1.168 1.103-0.427-0.024-0.854-0.054-1.284-0.054-0.107 0-0.213 0-0.319 0.002-0.106-0.002-0.212-0.002-0.321-0.002-4.898 0-9.577 1.65-13.905 4.911-0.44 0.332-0.7 0.851-0.7 1.402 0 0.553 0.259 1.071 0.7 1.403 4.329 3.26 9.008 4.91 13.908 4.91 0.106 0 0.212 0 0.318-0.002 0.106 0.002 0.223-0.006 0.318 0.002 0.432 0 0.859-0.029 1.288-0.053-0.399 0.354-0.793 0.717-1.168 1.104-3.599 3.494-5.816 8.047-6.59 13.529-0.077 0.547 0.107 1.096 0.498 1.486 0.331 0.332 0.779 0.516 1.242 0.516 0.081 0 0.163-0.006 0.246-0.018 5.484-0.773 10.036-2.99 13.529-6.588 0.384-0.373 0.745-0.766 1.097-1.162-0.031 0.531-0.053 1.062-0.045 1.598-0.073 5.016 1.579 9.801 4.909 14.227 0.332 0.441 0.853 0.701 1.404 0.701 0.551 0 1.07-0.26 1.402-0.701 3.33-4.426 4.982-9.211 4.909-14.227 0.008-0.535-0.014-1.066-0.046-1.596 0.353 0.396 0.712 0.789 1.097 1.16 3.494 3.598 8.046 5.814 13.529 6.588 0.082 0.012 0.165 0.018 0.246 0.018 0.461 0 0.91-0.184 1.242-0.516 0.391-0.391 0.574-0.939 0.496-1.486-0.772-5.484-2.99-10.037-6.588-13.529-0.375-0.387-0.77-0.75-1.169-1.104 0.428 0.023 0.855 0.053 1.286 0.053 0.107 0 0.213 0 0.317-0.002 0.106 0.002 0.213 0.002 0.318 0.002 0.001 0 0 0 0.001 0 4.899 0 9.579-1.65 13.908-4.91 0.44-0.332 0.7-0.85 0.7-1.403C81.651 49.448 81.392 48.929 80.951 48.597zM48.784 49.509l1.217-1.215 1.214 1.215-1.214 1.215L48.784 49.509zM59.828 36.215c0.013-0.014 0.026-0.027 0.039-0.04 2.41-2.489 5.449-4.198 9.058-5.099-0.901 3.607-2.61 6.646-5.099 9.057-0.014 0.012-0.027 0.027-0.04 0.04-2.411 2.489-5.449 4.198-9.057 5.099C55.63 41.665 57.339 38.624 59.828 36.215zM47.2 33.247c-0.054-3.464 0.886-6.822 2.801-10.009 1.914 3.187 2.854 6.545 2.799 10.008 0 0.02 0 0.039 0 0.058 0.056 3.463-0.885 6.82-2.799 10.008-1.915-3.188-2.854-6.544-2.801-10.009C47.2 33.285 47.2 33.266 47.2 33.247zM31.077 31.076c3.608 0.9 6.647 2.609 9.056 5.099 0.014 0.013 0.027 0.026 0.04 0.04 2.489 2.409 4.199 5.448 5.098 9.057-3.606-0.901-6.646-2.61-9.057-5.101-0.013-0.013-0.027-0.026-0.039-0.039C33.686 37.722 31.977 34.684 31.077 31.076zM33.303 52.799c-0.009 0-0.018 0-0.027 0s-0.019 0-0.029 0c-0.096 0.002-0.192 0.004-0.289 0.004-3.361 0-6.62-0.941-9.72-2.803 3.099-1.861 6.358-2.801 9.717-2.801 0.098 0 0.195 0 0.292 0.002 0.019 0.001 0.038 0.001 0.056 0 0.098-0.002 0.195-0.002 0.292-0.002 3.359 0 6.619 0.939 9.717 2.801-3.099 1.862-6.359 2.803-9.719 2.803C33.496 52.803 33.399 52.801 33.303 52.799zM40.174 63.785c-0.014 0.014-0.027 0.025-0.041 0.039-2.409 2.488-5.448 4.197-9.056 5.1 0.899-3.607 2.608-6.646 5.098-9.059 0.013-0.012 0.026-0.025 0.041-0.039 2.409-2.488 5.448-4.197 9.056-5.098C44.371 58.336 42.662 61.375 40.174 63.785zM52.8 66.752c0.056 3.465-0.885 6.822-2.799 10.01-1.915-3.188-2.854-6.545-2.801-10.01 0-0.02 0-0.037 0-0.055-0.054-3.465 0.886-6.822 2.801-10.01 1.914 3.188 2.854 6.545 2.799 10.01C52.8 66.715 52.8 66.732 52.8 66.752zM68.924 68.924c-3.607-0.902-6.646-2.611-9.058-5.098-0.013-0.014-0.025-0.027-0.038-0.041-2.489-2.41-4.198-5.449-5.099-9.057 3.607 0.9 6.646 2.609 9.056 5.098 0.014 0.014 0.026 0.027 0.04 0.039C66.314 62.277 68.022 65.314 68.924 68.924zM67.042 52.803c-0.096 0-0.192-0.002-0.289-0.004-0.01 0-0.02 0-0.029 0-0.009 0-0.018 0-0.028 0-0.096 0.002-0.192 0.004-0.289 0.004-3.361 0-6.62-0.941-9.718-2.803 3.098-1.861 6.356-2.801 9.717-2.801 0.097 0 0.194 0 0.29 0.002 0.02 0.001 0.039 0.001 0.058 0 0.097-0.002 0.194-0.002 0.291-0.002 3.36 0 6.62 0.939 9.718 2.801C73.664 51.861 70.404 52.803 67.042 52.803z" data-fill-palette-color="accent"></path><circle fill="#00ffef" cx="66.725" cy="50" r="2.3" data-fill-palette-color="accent"></circle><circle fill="#00ffef" cx="33.276" cy="50" r="2.3" data-fill-palette-color="accent"></circle><circle fill="#00ffef" cx="50" cy="66.725" r="2.3" data-fill-palette-color="accent"></circle><circle fill="#00ffef" cx="50" cy="33.275" r="2.3" data-fill-palette-color="accent"></circle><circle fill="#00ffef" cx="61.827" cy="61.825" r="2.3" data-fill-palette-color="accent"></circle><circle fill="#00ffef" cx="38.174" cy="38.174" r="2.3" data-fill-palette-color="accent"></circle><circle fill="#00ffef" cx="38.174" cy="61.825" r="2.3" data-fill-palette-color="accent"></circle><circle fill="#00ffef" cx="61.827" cy="38.174" r="2.3" data-fill-palette-color="accent"></circle></g></svg></g></svg></g><g><rect width="86.29694639047378" height="1.9652551592108072" y="52.87396179224602" x="234.66753360952617" fill="#77d4fc" data-fill-palette-color="secondary"></rect><rect width="86.29694639047378" height="1.9652551592108072" y="52.87396179224602" x="76.53311999999997" fill="#77d4fc" data-fill-palette-color="secondary"></rect></g></svg></g><defs></defs></svg><rect width="395.52" height="107.9586162919864" fill="none" stroke="none" visibility="hidden"></rect></g></svg></g></svg>